<?xml version="1.0" encoding="UTF-8"?>
<svg width="100px" height="100px" viewBox="0 0 100 100" version="1.1" xmlns="http://www.w3.org/2000/svg" xmlns:xlink="http://www.w3.org/1999/xlink">
    <!-- Generator: Sketch 64 (93537) - https://sketch.com -->
    <title>Group 2</title>
    <desc>Created with Sketch.</desc>
    <defs>
        <polygon id="path-1" points="0 0 1440 0 1440 120 0 120"></polygon>
        <circle id="path-3" cx="40" cy="40" r="40"></circle>
        <filter x="-18.8%" y="-18.8%" width="137.5%" height="137.5%" filterUnits="objectBoundingBox" id="filter-4">
            <feOffset dx="0" dy="0" in="SourceAlpha" result="shadowOffsetOuter1"></feOffset>
            <feGaussianBlur stdDeviation="5" in="shadowOffsetOuter1" result="shadowBlurOuter1"></feGaussianBlur>
            <feColorMatrix values="0 0 0 0 0   0 0 0 0 0   0 0 0 0 0  0 0 0 0.238008086 0" type="matrix" in="shadowBlurOuter1"></feColorMatrix>
        </filter>
    </defs>
    <g id="The-Pantheon-Platform" stroke="none" stroke-width="1" fill="none" fill-rule="evenodd">
        <g id="The-Pantheon-Platform-Basic" transform="translate(-670.000000, -200.000000)">
            <g id="Group-3" transform="translate(0.000000, 190.000000)">
                <g id="Map-Slice-2">
                    <g id="Map-Slice">
                        <g>
                            <mask id="mask-2" fill="white">
                                <use xlink:href="#path-1"></use>
                            </mask>
                            <path stroke="#979797" d="M1439.5,0.5 L0.5,0.5 L0.5,119.5 L1439.5,119.5 L1439.5,0.5 Z"></path>
                        </g>
                    </g>
                </g>
                <g id="Group-2" transform="translate(680.000000, 20.000000)">
                    <g id="Icon-Traffic-Copy">
                        <g id="Oval">
                            <use fill="black" fill-opacity="1" filter="url(#filter-4)" xlink:href="#path-3"></use>
                            <use fill="#FFFFFF" fill-rule="evenodd" xlink:href="#path-3"></use>
                        </g>
                    </g>
                    <g id="Group-19" transform="translate(4.000000, 6.000000)">
                        <path d="M36.4998927,0 C16.3413816,0 0,15.4462385 0,34.5 C0,53.5539754 16.3413816,69 36.4998927,69 C56.6584038,69 73,53.5539754 73,34.5 C73,15.4462385 56.6584038,0 36.4998927,0" id="Fill-1" fill="#273039"></path>
                        <path d="M36.4998927,0 C16.3413816,0 0,15.4462385 0,34.5 C0,53.5539754 16.3413816,69 36.4998927,69 C56.6584038,69 73,53.5539754 73,34.5 C73,15.4462385 56.6584038,0 36.4998927,0 Z" id="Stroke-3" stroke="#FFFFFF" stroke-width="3"></path>
                        <path d="M36.0979775,49 C36.0629213,48.6842105 36.0305618,48.3676849 36,48.0526316 L36.8939326,48 C36.8957303,48.0217151 36.8979775,48.0441664 36.8993258,48.0662495 L37,48.0669856 C36.9950562,48.3665808 36.992809,48.6687523 36.992809,48.9701877 L36.0979775,49 Z" id="Fill-5" fill="#273039"></path>
                        <path d="M36.0979775,49 C36.0629213,48.6842105 36.0305618,48.3676849 36,48.0526316 L36.8939326,48 C36.8957303,48.0217151 36.8979775,48.0441664 36.8993258,48.0662495 L37,48.0669856 C36.9950562,48.3665808 36.992809,48.6687523 36.992809,48.9701877 L36.0979775,49 Z" id="Stroke-7" stroke="#FFFFFF" stroke-width="3"></path>
                        <path d="M21.0448497,8.46540824 C21.7485949,8.34103008 22.4531971,8.15247101 23.1558712,8.43973588 C23.2803387,8.4105225 23.4200166,8.3545302 23.5611941,8.34943999 C23.975729,8.33571855 24.4373945,8.47116239 24.7913023,8.30407073 C25.1389974,8.13941351 25.4652696,8.03296174 25.8256043,8.02964204 C27.3012199,8.01636323 28.7787635,7.97564156 30.2528795,8.02056819 C30.8846435,8.03915852 31.5108375,8.24121771 32.1398165,8.35984172 C32.14303,8.39790763 32.1462434,8.43663749 32.1496711,8.4747034 C31.8075459,8.49506424 31.465635,8.51564639 31.1235098,8.53512198 C31.1213675,8.57385183 31.1192252,8.61169644 31.1172972,8.64954104 C31.4352144,8.9038302 31.830897,8.35010393 32.153313,8.71195143 C32.1267485,8.76993556 32.0886156,8.85005103 32.0689064,8.8938711 C33.0057338,8.72191054 33.9682688,8.63117202 35,8.81796058 C34.3620233,9.0698153 33.7823172,9.29909604 33.1681201,9.54165559 C33.1914711,9.77491998 33.2186783,10.0493487 33.2493132,10.3565317 C33.2932303,10.3755647 33.38792,10.4171716 33.5012476,10.4667458 C33.4247675,10.6092717 33.3660685,10.7192645 33.3058699,10.8308065 C33.1963984,10.766183 33.0826423,10.6986824 32.9691005,10.6314031 C32.9489629,10.6621656 32.9296822,10.6935921 32.9095446,10.7250187 C32.9720997,10.8181916 33.0597197,10.9029547 33.0905688,11.0080786 C33.1179903,11.103686 33.0839277,11.2218674 33.0747158,11.3703687 C33.0912115,11.3814344 33.1524813,11.42282 33.2765204,11.5060339 C32.9106157,11.7034455 32.5944124,11.8736355 32.2835648,12.0411698 C32.3594022,12.1414248 32.4315977,12.3184756 32.1297477,12.4231568 C32.2132974,12.4818049 32.3047735,12.514338 32.3461199,12.584937 C32.4033193,12.6827575 32.4234569,12.8082422 32.4594475,12.9219974 C32.371399,12.9563009 32.279066,13.0277852 32.1968017,13.0169408 C32.0249893,12.9950308 31.859818,12.9124809 31.6890768,12.885038 C31.5785342,12.8675543 31.4613504,12.9036283 31.3475943,12.915358 C31.3508078,12.9472271 31.3548781,12.9793175 31.3589485,13.0120719 C31.6053129,13.0667364 31.8514631,13.1214008 32.171951,13.1922211 C31.3859415,13.679332 30.6029312,13.7953003 29.8197066,13.9256539 C29.6050483,13.9619493 29.3955314,14.0717208 29.1952265,14.1757381 C28.8833077,14.3370756 28.5853139,14.532938 28.2725382,14.6929477 C28.1461426,14.7575712 27.9968244,14.7626614 27.8590745,14.800506 C27.6999017,14.8445474 27.4775311,14.8365801 27.3952668,14.9532123 C27.1009149,15.3668471 26.6960204,15.6886369 26.5449883,16.2279778 C26.4858608,16.4397748 26.39567,16.6480308 26.2868412,16.8337127 C26.1152431,17.1291662 25.8943721,16.956763 25.6889256,16.8779754 C25.4734103,16.794319 25.2516823,16.7270397 25.0453789,16.6216945 C24.868425,16.5305133 24.6687628,16.434242 24.548794,16.2737897 C24.1479699,15.7357767 23.7617133,15.1809438 23.4058775,14.604201 C23.3030471,14.4373306 23.2837664,14.1730823 23.2929783,13.9564165 C23.3049752,13.6751271 23.4035209,13.4294691 23.738148,13.534593 C23.8094866,13.5576096 23.8889659,13.5503063 23.9615898,13.5556178 C24.0644202,13.1727455 24.0644202,13.1727455 23.906747,13.0833349 C23.7096555,13.1844751 23.5774756,13.3073041 23.4504373,13.3022139 C23.301976,13.2957958 23.1577992,13.1773931 23.0121229,13.1083433 C23.0907453,12.9239892 23.1682965,12.7400777 23.2582731,12.5289447 C23.277768,12.558158 23.2642715,12.52142 23.2522746,12.5218626 C22.9266452,12.5329283 22.7599743,12.3678285 22.7023464,11.9962432 C22.605943,11.3716966 22.1684855,11.0319804 21.7173173,10.8161998 C21.1898833,10.565673 20.5673312,10.4638688 20.0448245,10.7312154 C19.7286211,10.8925529 19.5992263,10.7243547 19.3890667,10.6400343 C18.9535373,10.4634261 18.5175795,10.2923508 18.0908335,10.0537749 C18.1887365,10.0400535 18.2870681,10.0254468 18.4505255,10.0017663 C18.2701439,9.90306047 18.1452479,9.83356804 18.0203518,9.76473956 C18.0134965,9.73287042 18.0066411,9.70077997 18,9.66868952 C18.7026741,9.4743763 19.4421957,9.45357283 20.1482975,9.27674338 C20.1405852,9.23026755 20.1322303,9.18290647 20.124518,9.13576671 C19.9651309,9.16564402 19.8070293,9.21145591 19.647428,9.21698875 C19.5842302,9.21942319 19.5180331,9.13377489 19.4529072,9.08818431 C19.5000378,9.03263463 19.5409557,8.93636328 19.5949417,8.92529761 C19.9994077,8.84496082 20.4051592,8.7657306 20.8134814,8.72036134 C20.979938,8.70132839 21.0714142,8.66857399 21.0448497,8.46540824" id="Fill-9" fill="#FFFFFF"></path>
                        <path d="M12.0988219,11.8357144 C11.7736769,12.018087 11.7662575,12.292819 11.8919511,12.6149039 C11.4860654,12.5647781 11.1997633,12.6405001 11.0304261,12.8299116 C10.8610888,13.0186832 10.8610888,13.0186832 10.7487065,12.8137007 C10.7375774,12.8151938 10.7260118,12.813914 10.7155373,12.8175401 C10.6073012,12.8501752 8.31688399,12.8838768 8.20864781,12.918005 C8.2350522,12.8676659 7.39403965,12.81818 7.42175334,12.7682675 C4.70995703,14.785671 4.95152446,17.1174805 3,19.7043983 C3.0109109,19.6913869 3.45825801,19.6785889 3.46916891,19.6657908 C3.66381946,19.8146751 3.8656712,19.9554539 4.04810153,20.1188427 C4.1020014,20.1668355 4.13146084,20.2850044 4.11880419,20.3622195 C4.11225765,20.40296 3.99507453,20.4422074 3.92437187,20.4494597 C3.80849806,20.4622577 3.68956919,20.4490331 3.53550722,20.4456202 C3.79104061,21.0364648 3.70702664,21.5814495 3.64396161,22.1422186 C3.59529897,22.5790596 3.59289858,23.0549347 3.70637199,23.4695924 C3.84668622,23.979809 4.11487627,24.4531246 4.35447974,24.9275066 C4.52228946,25.2606832 4.70733841,25.5738094 5.11038724,25.6793936 C5.36155627,25.7463702 5.50492556,25.9882538 5.6055241,26.2747174 C5.77377026,26.7548586 5.90317359,27.2706211 6.30884104,27.6161691 C6.36448665,27.6641619 6.39001817,27.7531085 6.42493307,27.8153925 C6.35335753,27.9182037 6.29596617,28.0011779 6.22526351,28.1042024 C6.34179197,28.1965619 6.43126139,28.2948938 6.5410251,28.3499255 C6.81903495,28.4885713 7.02132313,28.658999 6.97942526,29.0380354 C6.97069653,29.1197298 7.06278457,29.2291533 7.13021396,29.3029556 C7.29082248,29.4782892 7.46474231,29.6391184 7.63298846,29.8054934 C7.67903248,29.6704737 7.67859605,29.5346008 7.62687836,29.4268836 C7.5273709,29.2206213 7.39447608,29.0337694 7.28383951,28.8332662 C7.17560333,28.6387354 7.08395173,28.4341795 6.97571555,28.2396487 C6.76360756,27.8574129 6.52989597,27.4879751 6.33939157,27.0933677 C6.29160181,26.9946092 6.3734336,26.8237549 6.39569184,26.6853224 C6.50174584,26.7512325 6.6713013,26.7928262 6.70272471,26.8868921 C6.85176767,27.3352513 7.00255638,27.7718791 7.39207568,28.056423 C7.42502662,28.0811659 7.43681039,28.1391838 7.45994151,28.1805643 C7.59894644,28.4254342 7.716566,28.6890745 7.88284819,28.9094147 C8.09321044,29.1881995 8.36903811,29.410886 8.5702352,29.6956432 C8.77994279,29.9927719 8.95255331,30.3159233 8.86308389,30.7384732 C8.83537019,30.8702933 8.94142419,31.0904203 9.05096967,31.1870457 C9.32439695,31.4274363 9.62597436,31.6351917 9.93191614,31.8282294 C10.3103063,32.0673401 10.694152,32.3002651 11.0948004,32.4886101 C11.2569364,32.5651852 11.5109423,32.5931277 11.6525659,32.5084471 C11.9953865,32.3036779 12.1852362,32.473679 12.3709398,32.7275075 C12.575192,33.008212 12.799302,33.2387907 13.1440866,33.3264575 C13.4151134,33.3949272 13.7603345,33.4459062 13.9170151,33.6453429 C14.2888587,34.1150323 14.6362619,34.6032789 15.0689884,35.015377 C15.3040093,35.2389167 15.5117529,35.4953048 15.7537568,35.7088194 C15.9021451,35.8397864 16.0494423,35.8764742 16.0660269,35.5567356 C16.0725735,35.4392066 16.233182,35.3312761 16.323306,35.219293 C16.4014281,35.3116524 16.4858785,35.3988927 16.5541808,35.4989309 C16.5919325,35.5552425 16.5943329,35.6380034 16.6277203,35.700074 C17.0342606,36.454094 16.8481206,37.5436369 16.2152881,38.0945941 C15.8648298,38.3994017 15.7127318,39.0561563 15.8761772,39.501316 C15.9065095,39.5836503 15.9158929,39.7148306 15.8748679,39.7805274 C15.3631464,40.5827535 15.8281692,40.668074 16.0507516,41.1838365 C17.0861965,43.6291223 16.809496,43.8846572 17.7676916,44.5121895 C18.9829482,45.3088698 18.7880795,45.9974063 18.5408384,47.9574317 C18.4865021,48.3833943 18.174232,49.7310318 18.1908165,50.0134426 C18.225295,50.5917024 18.1288426,51.11749 17.9405204,51.6490368 C17.9010229,51.76102 17.9924563,51.9566172 18.0755974,52.0703068 C18.1120398,52.1197927 18.5716071,52.042151 18.6462377,52.0316993 C18.4965401,52.8189943 18.589501,52.6982658 18.8397972,53.0094723 C19.0204818,53.2325854 19.2046578,53.4111186 19.5158368,53.2494362 C19.5712642,53.220214 19.6843012,53.3174793 19.7892641,53.3648322 C18.8535449,54.4398706 18.6091406,52.699119 17.9966024,52.8219805 C17.9204443,52.8369116 17.762018,52.2893672 17.7425966,52.2253768 C17.7061541,52.2341222 17.6697117,52.2422276 17.6330511,52.250973 C17.5470731,52.7727079 17.8650169,53.1417191 17.5202323,53.5582965 C17.4715697,53.6173809 17.508885,53.7583731 17.5053935,53.9117367 C17.9680159,53.7125133 18.2172209,53.532487 18.5026502,53.9189889 C18.861619,54.4051025 18.3407324,54.8261592 17.7899499,55.2049823 C17.6897878,55.2736653 17.5211052,55.2280188 17.3757719,55.2352711 C17.4704786,55.4306551 16.8031676,55.6409701 17.402831,55.9308465 C17.2697179,56.0603204 17.1352956,56.1356158 17.0881605,56.2514383 C17.0135299,56.4318912 16.9092216,56.7567491 16.9751235,56.8141271 C17.2068711,57.0163367 17.1785028,57.2147069 17.0667751,57.4740812 L17.3022324,57.4789872 C17.3142344,58.6099105 18.4297654,59.3959257 19.7237987,58.7895102 C19.5668999,58.6743275 19.4154565,58.5753557 19.2790702,58.4582533 C19.2144776,58.4036482 19.121735,58.2957177 19.136792,58.2404727 C19.2236428,57.923507 19.0193907,57.7498798 18.8851865,57.5306061 C18.6772247,57.1903906 18.9851304,57.1101893 19.7000129,56.3941369 C19.7735524,56.3207613 19.8193782,56.1966199 19.8355264,56.0889028 C19.8355264,56.0889028 19.3436628,55.8387004 19.2875807,55.648009 C19.2646678,55.570794 19.4263674,55.3468277 19.531985,55.3229379 C20.0423971,55.2079685 19.9090659,54.6759952 20.1395042,54.4176873 C20.2357383,54.3910247 20.3455021,54.3605226 20.4550475,54.3300205 C20.4469735,54.2961056 20.4388994,54.2615508 20.4306071,54.2278492 C20.0098826,54.17815 20.0004992,54.164712 20.050253,53.679025 C20.1584891,53.7154995 20.2593059,53.7594396 20.364487,53.7826894 C20.7182186,53.8596912 20.9397099,53.7560268 20.9682965,53.4461 C20.993828,53.162196 21.1306508,53.0738893 21.3547608,53.0325088 C21.5116596,53.0037132 21.6659398,52.9608396 21.8208746,52.9200991 C22.1687143,52.8275263 22.5095709,52.4098824 22.4916771,52.1003823 C22.4764018,51.8333291 22.6900373,51.5878193 22.9442614,51.5449458 C23.0618809,51.5246822 23.2072142,51.4845815 23.2779169,51.397128 C23.6504152,50.9325578 24.0122208,50.456896 24.3591875,49.9701425 C24.4792075,49.8024877 24.5154317,49.5603907 24.6461443,49.407667 C24.8394856,49.1822076 24.9324465,48.9452299 24.8909851,48.6495943 C24.8460321,48.330069 24.9483764,48.0674951 25.1827427,47.8802166 C25.6023761,47.5440538 26.006516,47.1616046 26.5924316,47.2125836 C26.6694626,47.2194093 26.7547858,47.1532859 26.8335626,47.1133985 C27.1460509,46.9574753 27.1155004,46.5927301 27.2558146,46.3312228 C27.591434,45.7002776 27.7520426,45.0334978 27.7332758,44.3069937 C27.7267293,44.0693761 27.7452778,43.7918711 27.8541686,43.5984069 C28.0667131,43.2234232 28.3331574,42.8789417 28.6094215,42.5521641 C29.0216355,42.0645574 29.0620058,41.5069879 28.9387126,40.9131571 C28.9153632,40.7977612 28.811055,40.6173083 28.7379519,40.6136822 C28.3429772,40.595125 28.1515999,40.2802923 27.9137422,40.0326495 C27.7230195,39.8342793 27.5307694,39.700966 27.2335564,39.6909409 C26.9387437,39.6817689 26.5527159,39.6369756 26.3790143,39.4366857 C26.1511946,39.1760316 25.8980616,39.0691676 25.6244161,38.9324415 C25.4976314,38.8684512 25.4000879,38.6978101 25.3322221,38.5529786 C25.211111,38.2953106 25.1829609,37.9591478 25.009041,37.7648304 C24.578715,37.2812764 24.096453,36.8478482 23.614191,36.4210324 C23.5094463,36.3273931 23.3030119,36.2828131 23.1712082,36.3227005 C22.8360252,36.4220989 22.6662515,36.2386598 22.4846941,35.9989091 C22.3081556,35.7670506 22.1156873,35.5458572 21.9077254,35.3466338 C21.6940899,35.1416513 21.4623423,34.9533063 21.2203384,34.7894909 C21.1001002,34.7080098 20.894757,34.6154371 20.8044147,34.6704688 C20.5294599,34.8387635 20.2787273,34.7127025 20.0175202,34.7233675 C19.511036,34.7434178 19.3897068,34.2159238 18.9864397,34.1431881 C18.9547981,34.1950203 18.8969703,34.2882329 18.8397972,34.3803791 C18.7293788,34.2278687 18.591465,33.9834254 18.5591687,33.9987831 C18.1825243,34.1745433 17.8224644,34.3882712 17.4595677,34.59624 C17.4353455,34.6103178 17.4294536,34.6593771 17.4135237,34.6909457 C17.2876118,34.9413614 17.1608271,35.1909239 17.0270594,35.4541377 C16.3988095,34.899981 15.9787397,34.9108593 15.7474285,35.4601101 C15.5451403,35.1977496 15.3395789,34.9560792 15.1630404,34.6917989 C15.0901556,34.5815222 15.0288363,34.412161 15.0519674,34.2884462 C15.1169964,33.9520701 15.2507641,33.6301985 15.3138291,33.2931825 C15.338706,33.156883 15.2952806,32.9207585 15.2069023,32.8631671 C15.0054869,32.7326267 14.762392,32.6498659 14.5275893,32.6112583 C14.251107,32.5666784 13.9656777,32.5907814 13.6837399,32.584809 C13.8602784,31.9636757 14.0372532,31.3657922 14.1963342,30.7623629 C14.2212111,30.6693635 14.1996075,30.489124 14.1454894,30.4596884 C13.8491492,30.2969395 13.1536882,30.6842946 13.0552718,31.0447738 C12.9293599,31.5082774 12.2515745,31.7375763 11.8469982,31.5477382 C11.4932666,31.3817898 11.44264,31.0370949 11.3200015,30.7604432 C11.1829605,30.4483834 11.1399715,30.0657209 11.1382258,29.7139871 C11.13648,29.3567075 11.2730846,28.9998545 11.2809404,28.641295 C11.2909785,28.1283055 11.9897128,27.3776983 12.4617186,27.4600326 C12.8505832,27.5274358 13.2307191,27.6464579 13.5301144,27.7209 C13.672829,27.5112249 13.7454956,27.2913113 13.8528589,27.2693413 C14.1424344,27.2104701 14.4658336,27.1215235 14.7117654,27.4286773 C14.7449345,27.4700578 14.8348404,27.4903214 14.8900496,27.4766701 C15.2433447,27.3915629 15.3489622,27.4785898 15.4104997,27.8584794 C15.4526158,28.1165739 15.5505958,28.3627236 15.6051503,28.6191117 C15.6590502,28.8737934 15.6904736,29.1346609 15.7336807,29.4032072 C16.1749177,29.3752647 16.4014281,28.9411966 16.2059047,28.3678428 C16.1138167,28.0954571 16.0007797,27.8290438 15.93706,27.5500457 C15.8606837,27.2145228 15.8314425,26.8636422 16.1356385,26.6157862 C16.5471978,26.2809032 16.9770875,25.9711897 17.3779541,25.623082 C17.4874996,25.5279497 17.5466367,25.3421643 17.5876617,25.1866676 C17.6459259,24.9650476 17.6376337,24.7212443 17.7116096,24.5070898 C17.7882041,24.2852565 17.9697616,24.1005376 18.0317355,23.875718 C18.1543741,23.432478 18.4472228,23.2948986 18.828668,23.2624769 C18.9157371,23.2550113 19.0023696,23.2407201 19.0263736,23.2375206 C19.0924937,22.9495639 19.0774367,22.5777798 19.2175327,22.4886198 C19.5996326,22.2460963 20.0476343,22.1230215 20.4703228,21.9551534 C20.4779604,21.9523804 20.4976001,21.9865086 20.4751236,21.9596327 C20.4618123,22.1245146 20.4509014,22.2507889 20.4406451,22.3777032 C20.5639384,22.3401622 20.6885409,22.3085936 20.8094337,22.2627338 C20.9133055,22.2232731 21.0110673,22.1639753 21.1127569,22.1185421 C21.4669249,21.9615524 21.8215293,21.8060558 22.1951187,21.6413872 C22.1237613,21.5104202 22.0705161,21.4120883 22.0214171,21.3220752 C21.8505523,21.4528289 21.6960539,21.6622907 21.5256255,21.6778617 C21.3438499,21.6944992 21.1179941,21.5658785 20.9676419,21.4297923 C20.8554777,21.3280476 20.8334377,21.1141064 20.7505148,20.8954726 C20.7404768,20.892913 20.684613,20.882248 20.6409694,20.8739292 C20.75968,20.788822 20.8823186,20.7000887 21.0568931,20.5753074 C20.5058924,20.1841129 20.0570177,20.547365 19.5915585,20.6290593 C19.7722431,20.478042 19.9575103,20.3445154 20.1508515,20.2286929 C20.2883289,20.1465719 20.4367172,20.0350153 20.5827051,20.0307493 C21.0376899,20.0183778 21.4948568,20.0691435 21.9500597,20.0559188 C22.1279075,20.0510129 22.3061917,19.9501214 22.4783658,19.8761059 C22.6858912,19.7886523 22.88687,19.6839214 23.0902493,19.5864427 C23.1042153,19.6154517 23.1177448,19.644674 23.1317107,19.6736829 C22.8934166,20.101352 22.6557771,20.5292343 22.4177011,20.9566901 C22.789763,21.1640189 23.2593683,20.8370281 23.542179,21.2992519 C23.6327395,21.2331285 23.7414121,21.1544204 23.8498665,21.0752856 C23.7985853,21.1379962 23.7479587,21.2004935 23.696241,21.2629907 C23.8199706,21.3414856 23.9428274,21.4201938 24.0659024,21.4989019 C24.1320225,21.4549619 24.1979244,21.4101686 24.2640445,21.3664418 C24.1922507,21.1083473 24.1219845,20.8502528 24.0475721,20.5927981 C24.0296782,20.531794 24.0098204,20.4669504 23.9725051,20.4193842 C23.9478464,20.3867491 23.8919826,20.3812033 23.8492119,20.3647791 C23.6467055,20.2852177 23.4444173,20.2065095 23.3141411,20.1563837 C23.3885534,19.7536709 23.4498727,19.4625147 23.4939528,19.1681589 C23.5262491,18.950165 23.4653662,18.7891226 23.2272903,18.7464623 C23.1624795,18.7351573 23.1118529,18.6462107 23.05097,18.5967248 C22.9390242,18.5030856 22.8344977,18.3883295 22.7085858,18.3241258 C22.4120274,18.1739617 22.1492929,18.0376622 21.9679536,17.6865683 C21.6892891,17.1492624 21.3065346,16.6727473 20.9630593,16.1625307 C20.6713017,16.5072256 20.4781787,16.998885 20.0155563,16.8918077 C19.6613883,16.8096868 19.4407698,16.4762969 19.5806476,16.029644 C19.372904,15.9748256 19.1444296,15.9891168 19.0586699,15.8782001 C18.5838273,15.2660254 17.8968768,15.5373447 17.3192535,15.3731027 C17.2618621,15.3573184 17.1029993,15.4884987 17.1023447,15.5529157 C17.1001625,15.7647238 17.1627911,15.9771719 17.171738,16.1908998 C17.1763206,16.2977637 17.1304948,16.4144395 17.0818322,16.5127714 C17.031642,16.6153693 16.9502466,16.7000499 16.8710335,16.8086203 C17.1673737,17.0153092 17.535944,17.1567279 17.4440742,17.5927157 C17.3495858,18.0395819 16.9847251,18.1778011 16.5821127,18.2383787 C16.6665631,18.5675025 16.7435941,18.8644179 16.8219344,19.1687988 C16.6224831,19.2886741 16.4852239,19.2805687 16.3815703,19.0395383 C16.3287615,18.9153969 16.2109237,18.8247439 16.1332381,18.7097745 C16.0717006,18.6178416 15.985068,18.5150304 15.9802672,18.4132857 C15.9588818,17.9158672 15.8674484,17.8205215 15.3816949,17.7874598 C15.1698052,17.7729553 14.8852488,17.7887396 14.7650106,17.6560662 C14.3229007,17.1671797 13.7570612,17.1189736 13.1899124,17.0219215 C13.0567993,16.9995249 12.934379,16.901193 12.8099946,16.8314435 C12.7318726,16.7875034 12.665316,16.7119948 12.5837025,16.683839 C12.2465555,16.5701494 12.1234805,16.304376 12.3654844,16.0552402 C12.7866453,15.6188258 13.2226451,15.1595881 13.7324026,14.874191 C14.0769689,14.6811534 14.4800178,14.6429724 14.6576473,14.1971728 C14.6901618,14.1165449 14.7556272,14.0399697 14.8243659,13.9902705 C14.8850306,13.9463305 14.970572,13.9414245 15.0423658,13.9203077 C14.8416052,14.2997707 14.6770687,14.6105506 14.5064222,14.9337021 C14.6336433,14.9686835 14.757373,15.0209423 14.8843759,15.0337404 C15.039529,15.0486715 15.2481455,15.0977307 15.3443797,15.0143299 C15.562816,14.8251317 15.7531022,14.8665122 15.980049,14.9435139 C16.1107616,14.9878806 16.2574042,14.9784953 16.3975002,14.9940663 C16.4051378,14.9533258 16.412339,14.9125852 16.4201949,14.8716314 C16.0315484,14.6508646 15.6435567,14.4300978 15.2560013,14.2091176 C15.2612386,14.1521662 15.2675669,14.0945749 15.2728041,14.0376234 C15.4925497,14.3215274 15.5892204,14.1848013 15.7304075,14.0282382 C15.8587197,13.8870327 16.0505334,13.7940334 16.2296905,13.7238572 C16.5140287,13.6120874 16.9190415,13.856104 16.846593,14.1001207 C16.7586512,14.3978893 16.9196961,14.4823566 17.0842326,14.5670372 C17.2616439,14.6583301 17.4582584,14.7197609 17.6524725,14.7579418 C17.8477777,14.7971893 18.059231,14.7594349 18.2486443,14.8138268 C18.7645119,14.9620711 19.1522855,15.4213088 19.708087,15.497244 C20.0024632,15.5371314 20.287456,15.6467682 20.5770315,15.7246232 C20.5964529,15.6759905 20.6160925,15.6273578 20.6357321,15.5797916 C20.5486631,15.5236934 20.4613759,15.4669552 20.3736522,15.4112836 C20.39351,15.3792884 20.4135861,15.3468666 20.4332257,15.3146581 C20.624603,15.3901668 20.8155438,15.4650355 20.9792074,15.5290259 C21.0115037,15.4055245 21.0073575,15.2747708 21.0654036,15.222512 C21.2288489,15.0753341 21.1522544,14.9494864 21.0440182,14.8618195 C20.8932295,14.7393846 20.7214918,14.6421192 20.5480084,14.5597849 C20.3398284,14.4603865 20.2564691,14.32622 20.3743068,14.0143736 C20.9353456,14.5663973 21.4852552,14.7892971 21.9779917,13.9294797 C21.3905485,13.679064 20.8063787,13.4307813 20.2112979,13.1775927 C20.4214419,12.8691591 20.3782348,12.6842268 20.0910597,12.5696841 C19.5791201,12.3666213 19.0571424,12.1921408 18.5480396,11.9811859 C18.26632,11.8640835 17.9808907,11.7301303 17.7371411,11.5445581 C17.4549851,11.3301904 17.0979803,11.4257493 17.002619,11.7826024 C16.9831976,11.8532051 16.9004929,11.9046107 16.8470295,11.964975 C16.7988033,11.8864801 16.711516,11.8079852 16.7112978,11.7288504 C16.7099885,11.5665282 16.7566872,11.4039926 16.7868013,11.2175673 C16.4924251,11.2111683 16.2220528,11.1821593 15.9549539,11.2058357 C15.6743254,11.2305787 15.3974067,11.3052341 15.1883537,11.3451215 C15.1034669,11.248496 15.0622237,11.1576296 15.0144339,11.152937 C14.5441739,11.11113 14.0931171,11.166375 13.6896318,11.4709692 C13.6206749,11.5234413 13.5021825,11.5021112 13.4057301,11.5144827 C13.39962,11.4880333 13.3935098,11.461584 13.3869633,11.4351346 C13.4790513,11.3346697 13.5702665,11.2352713 13.6621363,11.1348064 C13.6534076,11.0964122 13.6453335,11.0578046 13.6372595,11.0194104 C13.4511194,11.015571 13.2649794,11.006399 13.0786211,11 C12.7628595,11.1968771 12.4442611,11.3909812 12.1359189,11.5955372 C12.150976,11.6851237 12.1378829,11.8139577 12.0988219,11.8357144" id="Fill-11" fill="#FFFFFF"></path>
                        <path d="M4,20.8529189 C3.76014281,20.5686126 3.51996105,20.2843063 3.27945472,20 C3.18305745,20.1531463 3.09509899,20.3123578 3,20.4666414 C3.28821811,20.6959818 3.58390133,20.8858984 3.91204154,21 C3.94092827,20.9514784 3.97046414,20.9014405 4,20.8529189" id="Fill-13" fill="#FFFFFF"></path>
                        <path d="M63.3587031,30.2614402 C63.4862532,30.0709789 63.5463407,29.8066041 63.7053445,29.6669182 C64.0650013,29.3506968 64.1914669,28.9127859 64.2344175,28.4791598 C64.2760665,28.0601021 64.2159791,27.6086939 64.1023119,27.2039905 C64.0561075,27.0400953 63.745692,26.9689669 63.5641283,26.8408501 C63.4929778,26.7902889 63.445255,26.7011642 63.3862522,26.6300358 C63.6031742,26.4899214 63.8205302,26.352378 64.035283,26.2099069 C64.1446117,26.1381358 64.249602,26.0588662 64.3565446,25.982596 C64.3483016,25.9421043 64.3409262,25.9013983 64.333117,25.8609065 C64.054806,25.8161299 63.7990549,25.74543 63.7944995,25.4339219 C64.0365845,25.3186596 64.2450467,25.2108958 64.4595826,25.1192002 C64.7921241,24.9765149 64.914902,25.0928484 64.9335573,25.4632731 C64.9424511,25.6383089 65.0352938,25.8516941 65.1559024,25.9673848 C65.3791152,26.1829124 65.4166428,26.3686604 65.2346451,26.6356061 C65.1726054,26.727516 65.1211949,26.9040515 65.1630609,26.9792505 C65.2075299,27.060234 65.3710891,27.1114379 65.4749948,27.0979406 C66.1734839,27.0094586 66.440515,26.4057243 66.0726151,25.7636406 C65.9507049,25.5511123 65.8092717,25.3527241 65.6708754,25.138482 C65.7214183,25.0806366 65.758295,25.0060803 65.814044,24.9793001 C66.0912704,24.8464699 66.3025525,24.6804323 66.3823798,24.3247903 C66.4381288,24.0792688 66.9808678,23.8560285 67.2116729,23.9215866 C67.4782701,23.9972141 67.7082075,23.9153736 67.8958451,23.7086299 C68.1719869,23.4039776 68.4811009,23.1205352 68.700626,22.7719632 C68.8798037,22.4872354 70.82451,22.3548338 71,22.0626075 C68.2965002,17.0707655 68.0496429,13.8806999 63.3717184,11 C63.0758367,11.0312794 57.3675323,11.0430627 57.0694814,11.0059988 C56.8874838,10.9830749 56.6955078,11.0509896 56.5076532,11.0777699 C56.5566776,11.4466949 56.2679543,11.3055093 56.1293411,11.3466438 C55.7332414,11.4651197 55.3438663,11.6587946 54.9121914,11.5349626 C54.846464,11.5158951 54.7635998,11.5683844 54.6902801,11.5883089 C54.779652,12.2863098 54.5618622,12.7248635 54.0176048,12.9232517 C53.9347405,12.9538884 53.8230257,12.8928294 53.7238923,12.8746188 C53.7761705,12.7874222 53.8139149,12.6826578 53.8841977,12.6179567 C54.0293186,12.4844838 54.2052424,12.3876464 54.3403848,12.2443184 C54.3924461,12.1884012 54.4015568,12.0320044 54.3685847,11.9520921 C54.3429879,11.8914616 54.2124008,11.8372583 54.1405996,11.8509698 C53.7234584,11.9308821 53.3102219,12.0324329 52.8468763,12.1369831 C52.903493,11.8239753 52.9444913,11.593665 52.9857065,11.3633547 C52.9449251,11.3513571 52.9039268,11.3404308 52.8622778,11.328219 C52.8306072,11.4164867 52.8006719,11.5053972 52.7661813,11.5919511 C52.7301723,11.683004 52.7110831,11.8053362 52.6460065,11.8546119 C52.4015353,12.0386459 52.4039215,12.2436757 52.5575023,12.4819129 C52.7451399,12.772211 52.9405867,13.0573673 53.1156428,13.3570921 C53.1579426,13.428649 53.1332135,13.5447682 53.1395042,13.6403202 C53.0555554,13.6158966 52.9362482,13.619753 52.8926469,13.5601937 C52.6618418,13.243758 52.4260475,12.9268939 52.2420976,12.5785361 C52.1505565,12.4054285 52.1642226,12.1665485 52.1373242,11.9568054 C52.1279966,11.8831061 52.1384088,11.8061932 52.1410119,11.6842894 C52.0494708,11.7318512 51.9596651,11.7592742 51.9614004,11.7796272 C51.9718127,11.9325961 51.9997956,12.0851365 52.032334,12.3019495 C51.8718116,12.2676708 51.7464307,12.2443184 51.6217005,12.213896 C51.3833031,12.1549794 51.1475088,12.0707822 50.9058576,12.0429308 C50.8290672,12.0345753 50.7375261,12.2295357 50.6533603,12.2299642 C50.3774355,12.2312496 50.0945691,12.2179666 49.8277549,12.1498376 C49.4479244,12.0521432 49.1813271,12.200613 49.0652738,12.5866773 C49.0283971,12.7068672 48.8934716,12.8450534 48.7798044,12.876547 C48.5038795,12.9519602 48.3613617,13.052654 48.5286086,13.37466 C48.5626654,13.4400038 48.5427086,13.5379125 48.544227,13.5651212 C48.739023,13.6868108 48.8982438,13.7864334 49.0572477,13.8866987 C49.0459678,13.9134789 49.0344709,13.9404735 49.0227571,13.9672537 C48.9359883,13.9867498 48.8483518,14.00646 48.7546414,14.0263846 C48.9457498,14.3565317 49.1032352,14.1864234 49.2676621,14.0400961 C49.4203753,13.9038381 49.5954314,13.7870761 49.3854508,13.5469106 C49.2505253,13.3922278 49.2418484,13.230475 49.4090953,13.0873612 C49.4446705,13.1079285 49.4676643,13.1149985 49.4821981,13.1306381 C49.6659311,13.326884 49.7910951,13.7090919 50.1431596,13.3585918 C50.1592119,13.3418809 50.2826405,13.399512 50.2943543,13.4430032 C50.3121419,13.5059904 50.2837251,13.5919015 50.2566099,13.659602 C50.2160454,13.762224 50.1054152,13.8699878 50.1205997,13.9556847 C50.1824225,14.3085415 50.749023,14.764663 51.099569,14.7985133 C51.1728887,14.8060117 51.277879,14.8794968 51.2978358,14.9467688 C51.3149727,15.0050427 51.249896,15.1293031 51.1895917,15.1700091 C50.9303698,15.3456877 50.7049878,15.2269975 50.5214717,15.0204681 C50.334268,14.8096538 50.1537888,14.586842 50.0012926,14.3458196 C49.8338287,14.081659 49.7004217,14.1110102 49.4841504,14.2944015 C49.2281823,14.5101433 49.1891363,14.6883928 49.432306,14.9277013 C49.5069272,15.0011863 49.5618085,15.0963098 49.6297051,15.1794358 C49.8028089,15.3906785 49.9637651,15.6209889 50.2878466,15.4926578 C50.3331834,15.4753042 50.4420782,15.5702135 50.4793888,15.6391994 C50.4978272,15.6726212 50.4329675,15.8056656 50.3813401,15.828161 C50.2691913,15.8757228 50.1333981,15.9211421 50.0245032,15.8932906 C49.8891439,15.8581549 49.7624614,15.7604605 49.6468419,15.6685506 C49.323628,15.4099603 49.1980301,14.8977074 48.7173308,14.8330062 C48.680671,14.8278644 48.6476988,14.717744 48.6273082,14.6513289 C48.5494331,14.3873826 48.4817535,14.1195799 48.3988892,13.8573475 C48.3850062,13.8127851 48.3184111,13.7718649 48.2689529,13.7590104 C47.6136313,13.5886879 46.957659,13.4235072 46.300602,13.2604689 C46.272836,13.2538274 46.2383454,13.2776083 46.1602534,13.3007464 C46.367414,13.4455741 46.5465917,13.57112 46.7255524,13.6960232 C46.4596059,13.7506549 46.2331393,13.7420852 46.0071065,13.7425137 C45.8912701,13.742728 45.7743491,13.7703652 45.6585127,13.7667231 C45.3897462,13.7555825 45.1162075,13.6895959 44.8539487,13.7266598 C44.499715,13.7772209 44.1563273,13.9136932 43.8040459,13.9921058 C43.6211806,14.0323833 43.425083,14.0604491 43.2426516,14.033883 C42.821172,13.9711101 42.4044647,13.8721302 42.052834,13.8007876 C41.9628113,14.0203858 41.9055439,14.1602859 41.8636779,14.2635506 C41.9029408,14.3715287 41.9450237,14.4679376 41.9686682,14.5697026 C41.9717051,14.5836284 41.8868886,14.6378316 41.8382981,14.6470441 C41.4706151,14.7171012 41.1020645,14.7803027 40.7385032,14.845218 C40.7489154,15.0262527 40.7543385,15.1166628 40.76128,15.2394236 C40.4398015,15.1809355 40.1447874,15.1278034 39.8497734,15.0744571 C39.8408796,15.1102356 39.8317689,15.146871 39.8228751,15.1832922 C39.93177,15.2809866 40.0406648,15.3788952 40.1968487,15.5187954 C39.7096418,15.5472896 39.2990083,15.2934126 39.2977067,14.976977 C39.2966221,14.7764463 39.2460793,14.6916064 39.0775308,14.6410453 C39.002042,14.6181214 38.9415207,14.538209 38.8740579,14.4846485 C39.0200465,14.4475846 39.1369675,14.4835773 39.2571423,14.4996455 C39.7567138,14.5675602 40.2571531,14.6551853 40.7591107,14.676181 C40.8912163,14.6819655 41.0304803,14.4741506 41.1669242,14.3646729 C41.0545586,14.2464112 40.9608483,14.0769457 40.8259227,14.0191003 C39.9397961,13.6360354 39.0306757,13.33931 38.0367387,13.2694671 C38.0963923,13.1899832 38.1467182,13.1222827 38.2378255,13.0001647 C37.6675374,12.9247514 37.1503951,12.8551227 36.6323852,12.7887077 C36.5890008,12.7835659 36.5423626,12.7985628 36.4985443,12.8109889 C36.1506013,12.9048269 35.8050444,13.0143047 35.4534138,13.0890752 C35.2887699,13.1244251 35.121523,13.3206709 34.93215,13.1139273 C34.9061194,13.0854331 34.7759661,13.1816278 34.6898481,13.1996241 C34.3868079,13.2636825 34.2022073,13.7414425 33.7998168,13.4914219 C33.752094,13.4624992 33.6221576,13.5859027 33.4731322,13.6713853 C33.626713,13.7431564 33.7089265,13.7815058 33.8041552,13.8254254 C33.7336556,13.8723445 33.668579,13.8916263 33.6425483,13.9372598 C33.4004633,14.3573887 32.93907,14.5002882 32.6648805,14.927487 C32.3499097,15.420244 31.7047834,15.4935148 31.2193118,15.7797423 C31.0288542,15.8926479 30.7644262,16.0284774 30.7143172,16.211226 C30.5989147,16.6309263 30.7449033,17.0465561 31.0190928,17.369419 C31.27723,17.6730001 31.561181,17.5564524 31.8477351,17.369419 C32.3171544,17.063267 32.321059,17.0733364 32.5785455,17.5716636 C32.6334268,17.6777135 32.7069634,17.7717658 32.7659662,17.8756732 C32.8256198,17.9808661 32.8776811,18.0903438 32.9611961,18.2514539 C32.5394996,18.2433127 32.3800618,18.3999237 32.574424,18.8571165 C32.6926465,18.7120745 32.7919969,18.5899565 32.8913472,18.46741 C33.0520864,18.5265408 33.8982994,18.2737351 33.9983005,18.1231229 C34.0334419,18.071062 34.0312727,17.9887931 34.0427695,17.9200213 C34.0937462,17.6192254 34.1260676,17.3212145 34.4959197,17.2483722 C34.5957039,17.2290904 34.6980911,17.0636955 34.7410417,16.9413632 C34.756877,16.8970151 34.617613,16.7603286 34.5275904,16.7056968 C34.1829012,16.4963823 34.1427706,16.1439539 34.4711906,15.8911482 C34.6891973,15.7240393 34.9514561,15.6244167 35.1768381,15.4669488 C35.2826961,15.3936779 35.3425666,15.2458509 35.4364938,15.1479422 C35.5646948,15.0142551 35.6928957,14.8201517 35.845392,14.7888724 C36.081837,14.7402394 36.3668726,14.6920349 36.6122115,14.9600518 C36.3139436,15.1498704 36.0794509,15.3525434 35.811769,15.4568794 C35.43888,15.602564 35.2933253,15.808665 35.4017863,16.2405771 C35.4399646,16.3933318 35.3534127,16.5829361 35.3143667,16.8171028 C35.7197941,16.8256724 36.1215338,16.8826609 36.5113427,16.8320997 C37.25365,16.7365477 37.3467096,16.7149093 37.6506174,16.9210102 C36.9666621,17.2243771 36.1365014,16.8273864 35.5243473,17.5813045 C35.6872558,17.54017 35.7696861,17.4956076 35.8458258,17.5052485 C35.9764129,17.5228164 36.1202322,17.5470258 36.2217517,17.6235102 C36.2620993,17.6535041 36.2050487,17.833039 36.1918165,17.9450877 C36.0759801,17.9204498 35.9436577,17.9266628 35.8475612,17.8658181 C35.60591,17.7132777 35.4241293,17.7724085 35.3473389,18.0702051 C35.3148006,18.1987504 35.3078591,18.3345799 35.282913,18.4661246 C35.2336717,18.7324275 34.7894153,19.0657883 34.6406068,18.9222461 C34.417177,18.7075755 34.2360471,18.829265 34.0176066,18.8931092 C33.7729185,18.9633806 33.4612015,19.0902119 33.2746485,18.9880184 C33.0351665,18.8573307 32.8700888,18.9417421 32.6588067,18.9520257 C32.4711691,18.9612382 32.2778915,18.8119114 32.0891693,18.7268573 C32.0783232,18.7217154 32.0891693,18.6615134 32.090037,18.6263777 C32.1692136,18.6450168 32.2394963,18.6610849 32.3249636,18.6812237 C32.2778915,18.5282548 32.204355,18.4033516 32.2095611,18.282519 C32.2178041,18.0954856 32.2802777,17.9116659 32.3282175,17.6858547 C31.583524,17.9013823 31.5854763,17.9013823 31.6620498,18.6055962 C31.6950219,18.9072491 31.6015285,19.1073513 31.2863407,19.1253476 C31.1514152,19.1328461 31.0091143,19.1394876 30.884818,19.1887633 C30.7665955,19.2354681 30.6110623,19.312381 30.5694133,19.4192879 C30.4379585,19.755648 30.1700598,19.899833 29.9084517,20.064371 C29.8323121,20.1127897 29.7403371,20.1513533 29.6891435,20.2229102 C29.4420693,20.5633409 29.167229,20.684602 28.8123445,20.5939776 C28.7824093,20.5869076 28.7474848,20.6029757 28.694122,20.6113312 C28.7004127,20.7053835 28.7058358,20.7945082 28.7140788,20.9194114 C28.499109,20.9146981 28.3019269,20.8964875 28.1082155,20.9138411 C28.0351127,20.9202683 27.9687346,21.0098216 27.8993195,21.0620967 C27.967433,21.1250838 28.0266528,21.2219213 28.1056124,21.2469876 C28.646616,21.4188098 28.9769884,22.096672 28.7576801,22.6609858 C28.7158142,22.7693923 28.5509534,22.8923673 28.4448785,22.8908676 C28.0270866,22.8840119 27.6105962,22.8113838 27.1928043,22.8025998 C26.973713,22.7970296 26.7535371,22.8730855 26.5094998,22.9163624 C26.6518007,23.4751059 26.7090681,23.9372263 26.4544016,24.3822072 C26.4244663,24.4344823 26.4320586,24.5313197 26.4537508,24.5940927 C26.5196951,24.7894815 26.6014747,24.9775861 26.6967035,25.2175373 C27.071328,25.0611406 27.2802239,25.320802 27.4325032,25.6687313 C27.2821762,26.0912168 27.071111,26.413437 26.6732759,26.6433188 C26.4567877,26.7688647 26.2452887,27.1872796 26.2648117,27.4520829 C26.3062438,28.007827 25.9880191,28.2801288 25.6576468,28.4397392 C25.1630645,28.6786192 24.9682685,29.1122453 24.7574202,29.5709377 C24.6979836,29.7005542 24.6335577,29.8282426 24.5587196,29.9471469 C24.1769367,30.5579513 23.7981908,31.1597575 24.2730332,31.9218168 C24.348739,32.0428636 24.3509082,32.2590339 24.3148992,32.4115744 C24.2407118,32.7228682 24.1144632,33.0198078 24.0166313,33.3253171 C23.9960237,33.3893755 24,33.46586 24.0010129,33.5357029 C24.0047006,33.7741544 24.0409266,34.0173192 24.0099067,34.2502005 C23.9717285,34.5415698 24.0884325,34.705465 24.3001485,34.8357242 C24.6984174,35.0812457 25.025319,35.389326 25.1257539,35.9067207 C25.144843,36.0042009 25.1877936,36.1179635 25.2552564,36.1796652 C25.604284,36.5006 25.985633,36.7838281 26.3138361,37.1266155 C26.5253351,37.3483561 26.7116712,37.3355016 26.9563593,37.2495905 C27.1774028,37.1713921 27.4175356,37.0816247 27.641833,37.1011207 C28.0999724,37.140327 28.5450965,37.2048139 28.9587669,36.9061603 C29.0500911,36.8397453 29.1657106,36.8142505 29.2689655,36.7664745 C29.8205983,36.5095981 30.27505,36.7364806 30.4347047,37.3485704 C30.4516246,37.412843 30.4722322,37.475616 30.4878506,37.529605 C30.6824297,37.5073238 30.8507612,37.4741163 31.0195266,37.4698314 C31.5169289,37.4561199 31.7256079,37.7202805 31.6329822,38.2483874 C31.5893809,38.4971225 31.5546734,38.7548558 31.466603,38.9873086 C31.2872084,39.4605695 31.4492492,39.8327081 31.7063019,40.1947773 C32.2002334,40.8932067 32.5564195,41.6409118 32.4802798,42.5636527 C32.4674814,42.720478 32.5985024,42.8856587 32.6065285,43.0501966 C32.61629,43.2597254 32.5963331,43.4816803 32.5397165,43.6817825 C32.3913418,44.2113891 32.2037042,44.7279269 32.054028,45.2568907 C31.9043517,45.7839264 32.2405809,46.1860589 32.3937279,46.6336108 C32.5162889,46.9943945 32.680282,47.344252 32.7568555,47.7153194 C32.8375505,48.1039546 32.8032768,48.5195844 32.8789826,48.9095051 C32.9299593,49.171309 33.0880955,49.4080466 33.1935196,49.6576387 C33.3878818,50.1178308 33.5813763,50.5786657 33.7679293,51.0429284 C33.7861507,51.0872765 33.7592524,51.1586191 33.7425494,51.2134651 C33.6212899,51.6138837 33.9842006,52.0539371 34.3714065,51.994592 C34.7889815,51.9294624 35.210461,51.8906846 35.6297714,51.8394807 C35.6857373,51.8326249 35.7417032,51.8221271 35.7970183,51.8107722 C36.4228385,51.6809415 36.8519104,51.2421736 37.2278363,50.7303491 C37.3942156,50.5041094 37.5078827,50.2260231 37.6966049,50.0274206 C37.969059,49.7409789 38.0345695,49.3707684 38.0295803,49.0249816 C38.0254588,48.7224717 38.1098415,48.6179215 38.3419481,48.536081 C38.6590882,48.4238181 38.8812164,48.2224305 38.8104998,47.8119426 C38.7115833,47.2319891 38.6096299,46.6520356 38.5033381,46.0384461 C38.5551825,46.0011679 38.676225,45.9148284 38.8159228,45.8158485 C38.7972675,46.0150937 38.7814322,46.1762038 38.7595231,46.4114417 C38.9788313,46.278183 39.1816534,46.252474 39.0504156,45.9831716 C38.9443407,45.7648589 38.9955343,45.5752546 39.1708073,45.4321408 C39.3545403,45.2817428 39.5246072,45.3198779 39.6868649,45.4923429 C39.7293817,45.5379764 39.8194043,45.5309064 39.8873009,45.5484743 C39.8974963,45.5229795 39.9074747,45.4976989 39.9174531,45.4722041 C39.74782,45.2290393 39.578187,44.9860887 39.4085539,44.7433523 C39.4434784,44.7073596 39.4788367,44.6713669 39.5137611,44.6362312 C39.7115941,44.8620425 39.9102947,45.0874252 40.1447874,45.3535139 C40.3250497,44.8575434 39.8530272,44.7476372 39.7994475,44.3941376 C39.887084,44.3137968 39.9896882,44.200677 40.1085615,44.1136946 C40.3243989,43.9568694 40.4296061,43.3149999 40.2849191,43.0866178 C40.1940287,42.9437183 40.1063922,42.7789661 40.0794939,42.6122857 C40.0163696,42.2240789 39.9738528,41.8290164 39.9593191,41.4358821 C39.9530283,41.2647026 39.9992327,41.0661001 40.082097,40.9202012 C40.3441388,40.4574382 40.6118207,39.9946751 40.9211515,39.5687617 C41.1829765,39.2096919 41.5029365,38.8983981 41.802289,38.5721073 C41.9508806,38.4101402 42.1563058,38.2890934 42.2591269,38.1009888 C42.6704111,37.3462137 43.0704154,36.5830832 43.4333261,35.8002424 C43.5526332,35.5420806 43.547644,35.2166468 43.6120698,34.848793 C43.3519803,34.9689829 43.2064256,35.0617497 43.0489401,35.1048124 C42.626376,35.2183607 42.2007748,35.3216254 41.7712691,35.4006808 C41.6784265,35.4176059 41.5465379,35.3376936 41.4664936,35.2620661 C41.2545608,35.0606785 41.3252774,34.787734 41.3437157,34.5319289 C41.5528286,34.685112 41.7415508,34.6122697 41.9233315,34.4625144 C41.9760436,34.419666 42.0228987,34.3611779 42.0819015,34.3367543 C42.6198683,34.1132997 43.1610889,33.8994861 43.6975371,33.6745318 C43.7656507,33.6458234 43.8489488,33.5791941 43.8680379,33.5114935 C43.9738959,33.1502813 44.2600161,33.1132174 44.5350733,33.0513014 C44.6005837,33.0367329 44.708394,33.0581572 44.7290016,33.0195936 C44.9489606,32.6159614 45.5420255,32.5493321 45.5541732,31.9593092 C45.5550409,31.9211741 45.6014622,31.8554017 45.6335666,31.8502599 C45.9819435,31.7966994 45.8990793,31.3866399 46.0914891,31.2030344 C46.1186044,31.1764684 46.0906215,31.0252134 46.0461524,30.9780802 C45.8904024,30.8146134 45.7327,30.6387206 45.5446286,30.5296713 C45.3294419,30.4054109 45.217944,30.244515 45.2049286,29.9914951 C45.1990717,29.8880161 45.1938656,29.7843229 45.1821518,29.5717947 C44.8361611,30.0726928 44.466309,30.3651334 43.9389714,30.3597773 C43.9669544,29.9660003 43.8053474,29.7048391 43.4869058,29.4565324 C43.2174886,29.2476463 43.0630401,28.8667238 42.8534934,28.5562869 C43.0619555,28.431598 43.2168378,28.3392596 43.4046923,28.227211 C43.5194441,28.5153667 43.6287728,28.7878827 43.7331124,29.0486154 C44.2801898,29.0732532 44.6493912,29.9608584 45.3031943,29.298636 C45.3227173,29.7399748 45.5194656,29.9045128 45.8526579,29.9218664 C46.5062441,29.9555024 47.1593965,29.9966369 47.812115,30.0426989 C47.9173222,30.0501974 48.0615754,30.0628377 48.1164567,30.1350373 C48.2784975,30.3486367 48.4155922,30.5864455 48.5440101,30.8263967 C48.8088719,31.323867 49.0969445,31.7902721 49.6138698,32.0304376 C49.6737403,32.0580748 49.7149554,32.1711947 49.735563,32.2538921 C49.8685363,32.7817848 49.9791665,33.3163189 50.1245043,33.8399267 C50.3264588,34.5687785 50.5488039,35.2909888 50.7700644,36.0136276 C50.8082427,36.1391735 50.8665947,36.2638624 50.9399144,36.3690553 C51.0490262,36.5254521 51.1956655,36.5695859 51.2791805,36.3540583 C51.3963184,36.0526196 51.5598777,36.1025381 51.7071678,36.1869495 C51.7360184,36.5237381 51.7488168,36.8118938 51.7887305,37.0953362 C51.8175811,37.2980092 51.9377559,37.3474992 52.1141136,37.2521614 C52.3544632,37.1214737 52.3956784,36.8888067 52.2368915,36.5344502 C51.9952403,35.9958455 51.6141082,35.4861634 51.9314652,34.8226555 C51.9516389,34.7810925 51.8796208,34.6489051 51.8210519,34.6103415 C51.5494654,34.4288784 51.5154087,33.8997003 51.812375,33.7987923 C52.3434002,33.6186146 52.6132513,33.1331419 52.9948172,32.7800709 C53.3685739,32.4334271 53.7165169,32.0546469 54.0722691,31.6936489 C54.2126177,31.6964341 54.389843,31.6820798 54.5614284,31.7075747 C54.9193498,31.760064 55.3714154,31.5361809 55.5597038,32.1101357 C55.6195743,32.2924557 55.7217446,32.4914867 55.8594901,32.6052493 C56.0827029,32.790783 56.082486,33.0165942 56.0438738,33.2567596 C55.9618773,33.7681556 55.9545019,33.7679414 56.4310797,33.8508531 C56.7486537,33.9061276 56.9824957,34.0151768 57.0601538,34.425879 C57.1100458,34.6928247 57.0935598,34.9237778 57.0605876,35.1830108 C57.0161186,35.5315827 57.0410646,35.8895814 57.0388954,36.2439379 C57.0382446,36.363485 57.0104786,36.506813 57.0603707,36.5982944 C57.2002854,36.8558134 57.4256674,37.0700556 57.5228485,37.3417146 C57.6477957,37.692429 57.685757,38.0806358 57.746929,38.4557738 C57.7540875,38.5029071 57.6772971,38.567394 57.6447587,38.6158127 C57.1293519,38.2963776 56.9080914,37.5523147 56.1278227,37.5887358 C56.2525529,37.7946225 56.349734,37.9876547 56.474898,38.1556205 C56.7493044,38.5247598 57.0916075,38.8420524 57.1822809,39.3431648 C57.1998516,39.4404307 57.2948634,39.5194861 57.3464909,39.6109674 C57.4219798,39.7437976 57.5185101,39.8721286 57.557773,40.017599 C57.7232845,40.6305458 58.0248062,41.1310155 58.4940087,41.5280062 C58.8757915,41.8510833 58.9827341,41.8770066 59.3846907,41.5894937 C59.2124546,41.3656106 59.2790496,41.1569388 59.4920671,41.1057349 C59.4582273,40.9632639 59.4170121,40.8272201 59.394886,40.68732 C59.3462955,40.3863098 59.1282888,40.2421248 58.8879391,40.3623147 C58.8668977,40.0214554 58.9150544,39.6523162 58.8091964,39.3453072 C58.6217758,38.8009179 58.5222085,38.2430313 58.4228582,37.6802172 C58.4113613,37.6168015 58.3408617,37.5681686 58.3046357,37.5088235 C58.0840259,37.1450403 57.6447587,36.9610063 57.6063635,36.4373985 C57.591179,36.2306549 57.3345602,36.021983 57.3588554,35.8403057 C57.4106998,35.4576692 57.5759944,35.0917436 57.6855401,34.7468138 C57.8647177,34.8635757 58.0464984,34.9344899 58.1653717,35.0690339 C58.339994,35.2687076 58.448455,35.5360818 58.6248127,35.73447 C58.8931453,36.035266 58.9974848,36.3174229 58.6510602,36.6732791 C58.8107149,36.6657807 58.9603911,36.6672804 59.04434,36.5875823 C59.403346,36.246723 59.7454321,35.8852965 60.0855659,35.5219418 C60.1541133,35.4484568 60.2046561,35.3400503 60.2291683,35.2384995 C60.3699507,34.6579033 60.2441359,34.1280824 59.9374081,33.6449664 C59.7614843,33.3681655 59.5400069,33.1205016 59.3953199,32.8274184 C59.3269894,32.6888037 59.3306771,32.4340698 59.4068167,32.304239 C59.5293777,32.095353 59.7328506,31.9380992 59.9148482,31.7752752 C60.0536784,31.651229 60.1365426,31.6912923 60.2072592,31.8881808 C60.3226617,32.2121149 60.2751558,32.4473528 59.9727664,32.5876814 C60.1358918,32.9356106 60.3087787,33.0281633 60.4892579,32.8426296 C60.6612771,32.6650228 60.85347,32.4670631 60.7380675,32.1491277 C60.6606263,31.9374565 60.7491305,31.7954139 60.9406727,31.7208577 C61.2736481,31.5920981 61.5981635,31.4119205 61.9415512,31.3463624 C62.3448093,31.269878 62.6480664,31.0369967 62.9411281,30.7739074 C63.1014335,30.6297224 63.2357082,30.4452599 63.3587031,30.2614402" id="Fill-15" fill="#FFFFFF"></path>
                        <path d="M62.6054779,40.2623539 C62.7928641,40.3751634 62.9531259,40.483575 63.1229124,40.5673575 C63.1777824,40.5950651 63.2645391,40.5794521 63.322929,40.5486658 C63.6906615,40.3566917 63.7865288,40.1185382 63.7316588,39.6107853 C63.7248259,39.5428357 63.7914981,39.3994598 63.8113755,39.4023185 C64.0614999,39.4381625 64.3205277,39.2323345 64.5683745,39.5056723 C64.82264,39.7856071 65.1454412,39.7682349 65.5050985,39.5292017 C65.5144161,39.8973171 65.5224913,40.2117765 65.5309806,40.5605405 C65.4852211,40.5972641 65.3901821,40.6751093 65.2949361,40.7533943 C65.3976361,40.8778586 65.5017856,41.0014434 65.6026222,41.1289863 C65.8065729,41.3860514 66.0564902,41.4634568 66.3567223,41.5298671 C66.6898764,41.6030943 66.7480593,41.4273929 66.7824307,41.1747259 C66.8321242,40.8044115 66.8488958,40.4272801 66.8702227,40.0534473 C66.8855449,39.7754916 66.8975541,39.4964364 66.8851307,39.2202399 C66.8803684,39.1267817 66.8087269,39.0203493 66.7422617,38.9523997 C66.5909033,38.7991282 66.4238086,38.665428 66.3014382,38.4644379 C66.0908616,38.45982 65.8796639,38.4661971 65.6721932,38.43739 C65.6436194,38.4338716 65.6005516,38.1856026 65.6177373,38.1754871 C65.828728,38.0521223 66.0511068,37.9245793 65.949649,37.5975856 C65.880078,37.3750451 65.7357596,37.1841704 65.631196,36.9902172 C65.8347326,36.6981878 66.0577326,36.3775712 66.3206945,36 C66.8356442,36.2130847 67.4918066,36.3870269 67.9309736,36.9359015 C68.1577006,37.2191348 68.433707,37.4238633 68.7012242,37.7253484 C68.3189977,37.862787 68.451721,38.0426665 68.6107404,38.2528925 C68.8567237,38.5772475 69.0859353,38.9187547 69.3563512,39.3009438 C68.9149066,39.2063861 68.521292,39.1296404 68.2964285,38.6768629 C68.1860673,38.4541025 68.0547935,38.1589945 67.8303441,38.2766419 C67.6274286,38.3826345 67.3791678,38.6762032 67.3659162,38.902482 C67.3342365,39.4399217 67.4305178,39.9854977 67.4754491,40.5275553 C67.4762773,40.5396499 67.4785549,40.5601007 67.4837314,40.56164 C68.0734286,40.7410798 67.9280748,41.3955071 68.0175233,41.8331114 C68.1231221,42.3494405 68.3339058,42.6617009 68.7026736,42.9022733 C68.7782492,42.952191 68.8341545,43.0544453 68.8850904,43.1432855 C68.9948304,43.3356995 69.0954599,43.5344906 69.2000235,43.730423 C69.3640123,44.0387251 69.5147495,44.3580223 69.6959241,44.6522507 C70.0425368,45.2154189 70.01769,45.8410391 69.9777281,46.485351 C69.9241004,47.346266 69.3793345,47.9600115 69.1648239,48.730327 C69.0155361,49.2695259 68.8625212,49.6684275 68.3136142,49.8406105 C68.056657,49.9213144 67.8611955,50.1088905 67.5965772,49.9151572 C67.5626199,49.8896486 67.4984324,49.8608415 67.4764844,49.8793132 C67.1505773,50.1544102 66.8903072,49.7869545 66.5964938,49.7544091 C66.3695598,49.7297801 66.2051569,49.5419841 66.1573268,49.2319227 C66.1333082,49.074693 65.9962368,48.944951 65.9285293,48.7918995 C65.8701393,48.6601784 65.8372173,48.5126244 65.7831755,48.3408812 C65.6984894,48.4400568 65.6218784,48.5295568 65.5446463,48.6188369 C65.528703,48.6056428 65.5121384,48.5933283 65.4953669,48.5807939 C65.5558274,48.3582534 65.6162879,48.1368124 65.6765414,47.9151516 C65.6566639,47.900858 65.6376147,47.8870042 65.6183585,47.8729305 C65.4471227,48.0499513 65.2756798,48.2276318 65.0905712,48.4185065 C64.9771042,48.2155372 64.8549408,47.9881589 64.7249093,47.7673777 C64.4644321,47.3227365 63.8266977,47.0634724 63.3585428,47.2147648 C62.9686552,47.3398888 62.5812523,47.4742487 62.1932282,47.6068494 C62.1429135,47.6240018 62.0702366,47.6426934 62.0518086,47.686014 C61.8555189,48.1403309 61.4964828,48.0009132 61.1743027,48.0501712 C60.8881505,48.0932719 60.6067606,48.2201552 60.3351023,48.3450593 C60.0561971,48.4728222 59.653472,48.3762854 59.5045983,48.086455 C59.4714693,48.0224636 59.5031489,47.9078948 59.5178499,47.8192744 C59.5491155,47.6277401 59.6507803,47.419933 59.6139242,47.2517083 C59.463394,46.570233 59.2741443,45.8997529 59.0927627,45.2277334 C59.0523867,45.0771007 58.8807368,44.9214104 59.1416281,44.8145382 C59.1673031,44.803763 59.1737219,44.7043674 59.1755854,44.6465333 C59.1826253,44.3949658 59.177863,44.1431784 59.1902864,43.8924905 C59.1969122,43.7493345 59.1844888,43.5351503 59.2550951,43.4788555 C59.5201276,43.2670902 59.8058657,43.0799539 60.1017495,42.934379 C60.5587234,42.7098594 61.1463501,42.728551 61.4097261,42.1482305 C61.592557,41.7471299 61.7542682,41.4087012 62.1184808,41.1615318 C62.3406525,41.0113389 62.4321715,40.6012223 62.6054779,40.2623539" id="Fill-17" fill="#FFFFFF"></path>
                    </g>
                </g>
            </g>
        </g>
    </g>
</svg>