<svg xmlns="http://www.w3.org/2000/svg" width="100" height="100" viewBox="0 0 84 205" stroke-linejoin="round"><style>.a{fill:#eed01d;}.b{fill:#fff;}</style><path d="M8.2 0l18.3 44.1 -23.3 0 7.7 19.4 47.2 0 -49.9-63.5Z" class="a"/><path d="M19.5 86.5l22.5 54.6 -27.4 0 50.7 63.5 -18.3-44.1 23.3 0 -7.8-19.4 -10.8 0 -22.5-54.6 -9.7 0Z" class="a"/><path d="M76.5 82.9c0.6 0 1.9-0.7 1.9-7.5 0-6.7-1.3-7.5-1.9-7.5l-32.5 0 6.2 14.9 26.3 0Z" class="b"/><path d="M57.6 100.8l21.8 0c0.6 0 1.9-0.7 1.9-7.5 0-6.7-1.3-7.5-1.9-7.5l-28 0 6.2 14.9Z" class="b"/><path d="M76.5 121.7l-29.4 0 6.2 14.9 23.2 0c0.6 0 1.9-0.7 1.9-7.5 0-6.7-1.3-7.5-1.9-7.5" class="b"/><path d="M79.4 103.8l-39.7 0 6.2 14.9 33.5 0c0.6 0 1.9-0.7 1.9-7.5 0-6.7-1.3-7.5-1.9-7.5" class="b"/><path d="M21.8 101l-7-18 16.3 0 7.5 18.1 15.6-0.1 -13.6-32.9 -33.9 0c-2.6 0-4 0-5.2 3.9 -1.4 4.6-1.6 13.4-1.6 30.5 0 17.1 0.2 25.8 1.6 30.5 1.2 3.9 2.6 3.9 5.2 3.9l29.7 0 -14.7-35.8 0 0.1Z" class="b"/></svg>